<?xml version="1.0" encoding="UTF-8"?>
<!DOCTYPE svg PUBLIC "-//W3C//DTD SVG 1.1//EN" "http://www.w3.org/Graphics/SVG/1.1/DTD/svg11.dtd">
<svg xmlns="http://www.w3.org/2000/svg" version="1.1" width="430px" height="430px" style="shape-rendering:geometricPrecision; text-rendering:geometricPrecision; image-rendering:optimizeQuality; fill-rule:evenodd; clip-rule:evenodd" xmlns:xlink="http://www.w3.org/1999/xlink">
<g><path style="opacity:1" fill="#fefefe" d="M -0.5,-0.5 C 142.833,-0.5 286.167,-0.5 429.5,-0.5C 429.5,142.833 429.5,286.167 429.5,429.5C 286.167,429.5 142.833,429.5 -0.5,429.5C -0.5,286.167 -0.5,142.833 -0.5,-0.5 Z"/></g>
<g><path style="opacity:1" fill="#343434" d="M 203.5,13.5 C 283.462,12.3871 344.629,45.3871 387,112.5C 423.136,180.709 422.136,248.376 384,315.5C 335.775,386.048 268.942,416.548 183.5,407C 101.729,389.897 48.5618,341.397 24,261.5C 5.71255,174.01 31.8792,103.177 102.5,49C 133.062,28.0393 166.728,16.206 203.5,13.5 Z"/></g>
<g><path style="opacity:1" fill="#fefefe" d="M 207.5,38.5 C 285.442,39.3641 341.275,74.6974 375,144.5C 396.831,202.357 391.165,257.357 358,309.5C 322.844,357.423 275.344,382.423 215.5,384.5C 141.404,381.183 88.5704,346.183 57,279.5C 33.8655,221.365 39.1989,166.031 73,113.5C 106.254,67.7883 151.088,42.7883 207.5,38.5 Z"/></g>
<g><path style="opacity:1" fill="#cbcbcb" d="M 211.5,204.5 C 211.832,158.664 211.499,112.997 210.5,67.5C 210.995,65.5183 211.495,63.5183 212,61.5C 212.832,109.335 212.665,157.002 211.5,204.5 Z"/></g>
<g><path style="opacity:1" fill="#999999" d="M 221.5,68.5 C 220.501,113.664 220.168,158.997 220.5,204.5C 219.335,157.668 219.168,110.668 220,63.5C 220.608,65.1545 221.108,66.8211 221.5,68.5 Z"/></g>
<g><path style="opacity:1" fill="#333333" d="M 210.5,67.5 C 211.499,112.997 211.832,158.664 211.5,204.5C 204.519,207.126 201.686,212.126 203,219.5C 207.286,229.317 214.119,231.651 223.5,226.5C 231,217.816 230,210.483 220.5,204.5C 220.168,158.997 220.501,113.664 221.5,68.5C 232.774,105.38 249.607,139.38 272,170.5C 268.202,226.154 264.202,281.821 260,337.5C 250.167,344.005 239.334,347.838 227.5,349C 213.207,350.536 199.207,349.203 185.5,345C 180.468,343.402 175.968,340.902 172,337.5C 167.585,282.856 163.418,228.19 159.5,173.5C 159.577,171.701 160.077,170.034 161,168.5C 182.837,137.491 199.337,103.824 210.5,67.5 Z"/></g>
</svg>
